<svg width="148" height="28" viewBox="0 0 148 28" fill="none" xmlns="http://www.w3.org/2000/svg">
<path d="M3.08152 0.422607H0V12.4063H3.08152V0.422607Z" fill="white"/>
<path d="M22.7992 0.422607H18.6392L13.6232 8.87967L8.60713 0.422607H4.44707V12.4063H7.5286V4.18891L12.5104 12.4063H14.7359L19.7177 4.18891V12.4063H22.7992V0.422607Z" fill="white"/>
<path d="M33.5905 0.422607H24.1747V12.4063H27.2562V9.20494H33.5905C36.3125 9.20494 38.1785 7.49299 38.1785 4.82234C38.1785 2.15168 36.3125 0.422607 33.5905 0.422607ZM32.7345 6.61989H27.2562V3.00766H32.7345C33.6589 3.00766 35.097 3.00766 35.097 4.82234C35.097 6.61989 33.6589 6.61989 32.7345 6.61989Z" fill="white"/>
<path d="M51.9565 2.87071V0.422607H39.2881V12.4063H51.9565V9.95821H42.3696V7.52723H51.9565V5.30168H42.3696V2.87071H51.9565Z" fill="white"/>
<path d="M67.0845 4.82234C67.0845 2.15168 65.2185 0.422607 62.4964 0.422607H53.0807V12.4063H56.1622V9.20494H61.1269L63.0614 12.4063H66.6907L64.4823 8.84543C66.0915 8.21201 67.0845 6.77397 67.0845 4.82234ZM56.1622 3.00766H61.6405C62.5649 3.00766 64.003 3.00766 64.003 4.82234C64.003 6.61989 62.5649 6.61989 61.6405 6.61989H56.1622V3.00766Z" fill="white"/>
<path d="M71.1753 0.422607H68.0937V12.4063H71.1753V0.422607Z" fill="white"/>
<path d="M85.0322 12.4063H88.439L82.2417 0.422607H78.0817L71.9015 12.4063H75.2912L76.5751 9.85549H83.7482L85.0322 12.4063ZM77.7221 7.56147L80.1702 2.69951L82.6012 7.56147H77.7221Z" fill="white"/>
<path d="M8.69674 15.4226H0V27.4063H8.69674C11.7954 27.4063 14.5174 25.4889 14.5174 21.4145C14.5174 17.34 11.7954 15.4226 8.69674 15.4226ZM7.53261 24.8212H3.08152V18.0077H7.53261C9.86087 18.0077 11.4359 18.5041 11.4359 21.4145C11.4359 24.3248 9.86087 24.8212 7.53261 24.8212Z" fill="white"/>
<path d="M28.3001 17.8707V15.4226H15.6316V27.4063H28.3001V24.9582H18.7132V22.5272H28.3001V20.3017H18.7132V17.8707H28.3001Z" fill="white"/>
<path d="M42.1151 15.4226L37.3045 25.1294L32.4939 15.4226H29.0357L35.1988 27.4063H39.4102L45.5732 15.4226H42.1151Z" fill="white"/>
<path d="M58.9782 17.8707V15.4226H46.3098V27.4063H58.9782V24.9582H49.3913V22.5272H58.9782V20.3017H49.3913V17.8707H58.9782Z" fill="white"/>
<path d="M63.1839 24.8212V15.4226H60.1024V27.4063H72.4285V24.8212H63.1839Z" fill="white"/>
<path d="M80.4038 27.5775C85.6595 27.5775 87.9364 25.3691 87.9364 21.3973C87.9364 17.4427 85.6595 15.2514 80.4038 15.2514C75.1309 15.2514 72.8712 17.4256 72.8712 21.3973C72.8712 25.3862 75.1309 27.5775 80.4038 27.5775ZM80.4038 24.9924C77.2024 24.9924 75.9527 23.8626 75.9527 21.3973C75.9527 18.9492 77.1853 17.8365 80.4038 17.8365C83.6222 17.8365 84.8549 18.9664 84.8549 21.3973C84.8549 23.8454 83.6051 24.9924 80.4038 24.9924Z" fill="white"/>
<path d="M98.4743 15.4226H89.0585V27.4063H92.14V24.2049H98.4743C101.196 24.2049 103.062 22.493 103.062 19.8223C103.062 17.1517 101.196 15.4226 98.4743 15.4226ZM97.6183 21.6199H92.14V18.0077H97.6183C98.5427 18.0077 99.9808 18.0077 99.9808 19.8223C99.9808 21.6199 98.5427 21.6199 97.6183 21.6199Z" fill="white"/>
<path d="M116.84 17.8707V15.4226H104.172V27.4063H116.84V24.9582H107.253V22.5272H116.84V20.3017H107.253V17.8707H116.84Z" fill="white"/>
<path d="M131.968 19.8223C131.968 17.1517 130.102 15.4226 127.38 15.4226H117.965V27.4063H121.046V24.2049H126.011L127.945 27.4063H131.575L129.366 23.8454C130.975 23.212 131.968 21.774 131.968 19.8223ZM121.046 18.0077H126.524C127.449 18.0077 128.887 18.0077 128.887 19.8223C128.887 21.6199 127.449 21.6199 126.524 21.6199H121.046V18.0077Z" fill="white"/>
<path d="M132.622 23.2805C132.622 26.7386 135.55 27.5775 140.463 27.5775C144.897 27.5775 147.927 26.927 147.927 23.7256C147.927 20.6954 145 20.4386 140.275 20.1818C136.783 19.9764 136.063 19.8052 136.063 18.8808C136.063 17.9905 136.783 17.6995 139.813 17.6995C143.014 17.6995 144.332 18.0248 144.332 19.343H147.414C147.414 16.3813 144.675 15.2514 140.155 15.2514C135.67 15.2514 132.982 16.0903 132.982 18.7267C132.982 21.4145 135.053 22.2362 140.275 22.4759C144.161 22.6642 144.846 22.8354 144.846 23.8283C144.846 24.7699 143.87 25.1294 140.634 25.1294C136.731 25.1294 135.704 24.5473 135.704 23.2805H132.622Z" fill="white"/>
</svg>
