<svg width="13" height="13" viewBox="0 0 13 13" fill="none" xmlns="http://www.w3.org/2000/svg">
<path d="M5.95888 0.868917C6.30582 0.587249 6.80268 0.587249 7.14961 0.868917L8.16599 1.69408C8.30839 1.80969 8.48136 1.88134 8.6638 1.90028L9.96596 2.03549C10.4105 2.08164 10.7618 2.43297 10.8079 2.87746L10.9431 4.17962C10.9621 4.36206 11.0337 4.53504 11.1493 4.67743L11.9745 5.69381C12.2562 6.04075 12.2562 6.5376 11.9745 6.88454L11.1493 7.90091C11.0337 8.04331 10.9621 8.21629 10.9431 8.39872L10.8079 9.70089C10.7618 10.1454 10.4105 10.4967 9.96596 10.5429L8.6638 10.6781C8.48136 10.697 8.30839 10.7687 8.16599 10.8843L7.14961 11.7094C6.80268 11.9911 6.30582 11.9911 5.95888 11.7094L4.94251 10.8843C4.80011 10.7687 4.62714 10.697 4.4447 10.6781L3.14254 10.5429C2.69804 10.4967 2.34672 10.1454 2.30056 9.70089L2.16535 8.39872C2.14641 8.21629 2.07476 8.04331 1.95915 7.90091L1.13399 6.88454C0.852325 6.5376 0.852324 6.04075 1.13399 5.69381L1.95915 4.67743C2.07476 4.53504 2.14641 4.36206 2.16535 4.17962L2.30056 2.87746C2.34672 2.43297 2.69804 2.08164 3.14253 2.03549L4.4447 1.90028C4.62714 1.88134 4.80011 1.80969 4.94251 1.69408L5.95888 0.868917Z" stroke="#222628" stroke-width="0.826506"/>
<path d="M4.7832 6.58433C4.7832 6.58433 5.80065 7.76505 5.96393 7.76505C6.1272 7.76505 8.32537 4.51807 8.32537 4.51807" stroke="#222628" stroke-width="0.826506" stroke-linecap="round"/>
</svg>
