<svg width="148" height="28" viewBox="0 0 148 28" fill="none" xmlns="http://www.w3.org/2000/svg">
<path d="M3.08152 0H0V11.9837H3.08152V0Z" fill="white"/>
<path d="M22.7992 0H18.6392L13.6232 8.45707L8.60713 0H4.44707V11.9837H7.5286V3.7663L12.5104 11.9837H14.7359L19.7177 3.7663V11.9837H22.7992V0Z" fill="white"/>
<path d="M33.5905 0H24.1747V11.9837H27.2562V8.78234H33.5905C36.3125 8.78234 38.1785 7.07038 38.1785 4.39973C38.1785 1.72908 36.3125 0 33.5905 0ZM32.7345 6.19728H27.2562V2.58505H32.7345C33.6589 2.58505 35.097 2.58505 35.097 4.39973C35.097 6.19728 33.6589 6.19728 32.7345 6.19728Z" fill="white"/>
<path d="M51.9565 2.4481V0H39.2881V11.9837H51.9565V9.5356H42.3696V7.10462H51.9565V4.87908H42.3696V2.4481H51.9565Z" fill="white"/>
<path d="M67.0845 4.39973C67.0845 1.72908 65.2185 0 62.4964 0H53.0807V11.9837H56.1622V8.78234H61.1269L63.0614 11.9837H66.6907L64.4823 8.42283C66.0915 7.7894 67.0845 6.35136 67.0845 4.39973ZM56.1622 2.58505H61.6405C62.5649 2.58505 64.003 2.58505 64.003 4.39973C64.003 6.19728 62.5649 6.19728 61.6405 6.19728H56.1622V2.58505Z" fill="white"/>
<path d="M71.1753 0H68.0937V11.9837H71.1753V0Z" fill="white"/>
<path d="M85.0322 11.9837H88.439L82.2417 0H78.0817L71.9015 11.9837H75.2912L76.5751 9.43288H83.7482L85.0322 11.9837ZM77.7221 7.13886L80.1702 2.2769L82.6012 7.13886H77.7221Z" fill="white"/>
<path d="M8.69674 15H0V26.9837H8.69674C11.7954 26.9837 14.5174 25.0663 14.5174 20.9918C14.5174 16.9174 11.7954 15 8.69674 15ZM7.53261 24.3986H3.08152V17.5851H7.53261C9.86087 17.5851 11.4359 18.0815 11.4359 20.9918C11.4359 23.9022 9.86087 24.3986 7.53261 24.3986Z" fill="white"/>
<path d="M28.3001 17.4481V15H15.6316V26.9837H28.3001V24.5356H18.7132V22.1046H28.3001V19.8791H18.7132V17.4481H28.3001Z" fill="white"/>
<path d="M42.1151 15L37.3045 24.7068L32.4939 15H29.0357L35.1988 26.9837H39.4102L45.5732 15H42.1151Z" fill="white"/>
<path d="M58.9782 17.4481V15H46.3098V26.9837H58.9782V24.5356H49.3913V22.1046H58.9782V19.8791H49.3913V17.4481H58.9782Z" fill="white"/>
<path d="M63.1839 24.3986V15H60.1024V26.9837H72.4285V24.3986H63.1839Z" fill="white"/>
<path d="M80.4038 27.1549C85.6595 27.1549 87.9364 24.9465 87.9364 20.9747C87.9364 17.0201 85.6595 14.8288 80.4038 14.8288C75.1309 14.8288 72.8712 17.003 72.8712 20.9747C72.8712 24.9636 75.1309 27.1549 80.4038 27.1549ZM80.4038 24.5698C77.2024 24.5698 75.9527 23.4399 75.9527 20.9747C75.9527 18.5266 77.1853 17.4139 80.4038 17.4139C83.6222 17.4139 84.8549 18.5438 84.8549 20.9747C84.8549 23.4228 83.6051 24.5698 80.4038 24.5698Z" fill="white"/>
<path d="M98.4743 15H89.0585V26.9837H92.14V23.7823H98.4743C101.196 23.7823 103.062 22.0704 103.062 19.3997C103.062 16.7291 101.196 15 98.4743 15ZM97.6183 21.1973H92.14V17.5851H97.6183C98.5427 17.5851 99.9808 17.5851 99.9808 19.3997C99.9808 21.1973 98.5427 21.1973 97.6183 21.1973Z" fill="white"/>
<path d="M116.84 17.4481V15H104.172V26.9837H116.84V24.5356H107.253V22.1046H116.84V19.8791H107.253V17.4481H116.84Z" fill="white"/>
<path d="M131.968 19.3997C131.968 16.7291 130.102 15 127.38 15H117.965V26.9837H121.046V23.7823H126.011L127.945 26.9837H131.575L129.366 23.4228C130.975 22.7894 131.968 21.3514 131.968 19.3997ZM121.046 17.5851H126.524C127.449 17.5851 128.887 17.5851 128.887 19.3997C128.887 21.1973 127.449 21.1973 126.524 21.1973H121.046V17.5851Z" fill="white"/>
<path d="M132.622 22.8579C132.622 26.316 135.55 27.1549 140.463 27.1549C144.897 27.1549 147.927 26.5043 147.927 23.303C147.927 20.2728 145 20.016 140.275 19.7592C136.783 19.5538 136.063 19.3826 136.063 18.4582C136.063 17.5679 136.783 17.2769 139.813 17.2769C143.014 17.2769 144.332 17.6022 144.332 18.9204H147.414C147.414 15.9587 144.675 14.8288 140.155 14.8288C135.67 14.8288 132.982 15.6677 132.982 18.3041C132.982 20.9918 135.053 21.8136 140.275 22.0533C144.161 22.2416 144.846 22.4128 144.846 23.4057C144.846 24.3473 143.87 24.7068 140.634 24.7068C136.731 24.7068 135.704 24.1247 135.704 22.8579H132.622Z" fill="white"/>
</svg>
