<svg width="11" height="11" viewBox="0 0 11 11" fill="none" xmlns="http://www.w3.org/2000/svg">
<path d="M4.5608 1.29371C5.02551 0.570202 6.08299 0.570203 6.5477 1.29371L7.31826 2.4934C7.47816 2.74233 7.72568 2.92217 8.01184 2.99731L9.39093 3.35944C10.2226 3.57783 10.5494 4.58355 10.0049 5.24909L9.10206 6.35266C8.91472 6.58166 8.82017 6.87264 8.83714 7.16801L8.9189 8.59151C8.9682 9.44998 8.11268 10.0716 7.31146 9.75938L5.9829 9.24173C5.70723 9.13432 5.40127 9.13432 5.1256 9.24173L3.79704 9.75938C2.99581 10.0716 2.14029 9.44998 2.1896 8.59151L2.27136 7.16801C2.28833 6.87264 2.19378 6.58166 2.00644 6.35266L1.10358 5.24909C0.559091 4.58355 0.885872 3.57783 1.71757 3.35944L3.09666 2.99731C3.38282 2.92217 3.63034 2.74233 3.79023 2.4934L4.5608 1.29371Z" stroke="#222628" stroke-width="0.826506"/>
</svg>
