<svg width="148" height="28" viewBox="0 0 148 28" fill="none" xmlns="http://www.w3.org/2000/svg">
<path d="M3.08152 0.422554H0V12.4062H3.08152V0.422554Z" fill="white"/>
<path d="M22.7992 0.422554H18.6392L13.6232 8.87962L8.60713 0.422554H4.44707V12.4062H7.5286V4.18886L12.5104 12.4062H14.7359L19.7177 4.18886V12.4062H22.7992V0.422554Z" fill="white"/>
<path d="M33.5905 0.422554H24.1747V12.4062H27.2562V9.20489H33.5905C36.3125 9.20489 38.1785 7.49293 38.1785 4.82228C38.1785 2.15163 36.3125 0.422554 33.5905 0.422554ZM32.7345 6.61984H27.2562V3.00761H32.7345C33.6589 3.00761 35.097 3.00761 35.097 4.82228C35.097 6.61984 33.6589 6.61984 32.7345 6.61984Z" fill="white"/>
<path d="M51.9565 2.87065V0.422554H39.2881V12.4062H51.9565V9.95815H42.3696V7.52717H51.9565V5.30163H42.3696V2.87065H51.9565Z" fill="white"/>
<path d="M67.0845 4.82228C67.0845 2.15163 65.2185 0.422554 62.4964 0.422554H53.0807V12.4062H56.1622V9.20489H61.1269L63.0614 12.4062H66.6907L64.4823 8.84538C66.0915 8.21196 67.0845 6.77391 67.0845 4.82228ZM56.1622 3.00761H61.6405C62.5649 3.00761 64.003 3.00761 64.003 4.82228C64.003 6.61984 62.5649 6.61984 61.6405 6.61984H56.1622V3.00761Z" fill="white"/>
<path d="M71.1753 0.422554H68.0937V12.4062H71.1753V0.422554Z" fill="white"/>
<path d="M85.0322 12.4062H88.439L82.2417 0.422554H78.0817L71.9015 12.4062H75.2912L76.5751 9.85543H83.7482L85.0322 12.4062ZM77.7221 7.56141L80.1702 2.69946L82.6012 7.56141H77.7221Z" fill="white"/>
<path d="M8.69674 15.4226H0V27.4062H8.69674C11.7954 27.4062 14.5174 25.4889 14.5174 21.4144C14.5174 17.3399 11.7954 15.4226 8.69674 15.4226ZM7.53261 24.8212H3.08152V18.0076H7.53261C9.86087 18.0076 11.4359 18.5041 11.4359 21.4144C11.4359 24.3247 9.86087 24.8212 7.53261 24.8212Z" fill="white"/>
<path d="M28.3001 17.8707V15.4226H15.6316V27.4062H28.3001V24.9582H18.7132V22.5272H28.3001V20.3016H18.7132V17.8707H28.3001Z" fill="white"/>
<path d="M42.1151 15.4226L37.3045 25.1293L32.4939 15.4226H29.0357L35.1988 27.4062H39.4102L45.5732 15.4226H42.1151Z" fill="white"/>
<path d="M58.9782 17.8707V15.4226H46.3098V27.4062H58.9782V24.9582H49.3913V22.5272H58.9782V20.3016H49.3913V17.8707H58.9782Z" fill="white"/>
<path d="M63.1839 24.8212V15.4226H60.1024V27.4062H72.4285V24.8212H63.1839Z" fill="white"/>
<path d="M80.4038 27.5774C85.6595 27.5774 87.9364 25.369 87.9364 21.3973C87.9364 17.4427 85.6595 15.2514 80.4038 15.2514C75.1309 15.2514 72.8712 17.4255 72.8712 21.3973C72.8712 25.3861 75.1309 27.5774 80.4038 27.5774ZM80.4038 24.9924C77.2024 24.9924 75.9527 23.8625 75.9527 21.3973C75.9527 18.9492 77.1853 17.8364 80.4038 17.8364C83.6222 17.8364 84.8549 18.9663 84.8549 21.3973C84.8549 23.8454 83.6051 24.9924 80.4038 24.9924Z" fill="white"/>
<path d="M98.4743 15.4226H89.0585V27.4062H92.14V24.2049H98.4743C101.196 24.2049 103.062 22.4929 103.062 19.8223C103.062 17.1516 101.196 15.4226 98.4743 15.4226ZM97.6183 21.6198H92.14V18.0076H97.6183C98.5427 18.0076 99.9808 18.0076 99.9808 19.8223C99.9808 21.6198 98.5427 21.6198 97.6183 21.6198Z" fill="white"/>
<path d="M116.84 17.8707V15.4226H104.172V27.4062H116.84V24.9582H107.253V22.5272H116.84V20.3016H107.253V17.8707H116.84Z" fill="white"/>
<path d="M131.968 19.8223C131.968 17.1516 130.102 15.4226 127.38 15.4226H117.965V27.4062H121.046V24.2049H126.011L127.945 27.4062H131.575L129.366 23.8454C130.975 23.212 131.968 21.7739 131.968 19.8223ZM121.046 18.0076H126.524C127.449 18.0076 128.887 18.0076 128.887 19.8223C128.887 21.6198 127.449 21.6198 126.524 21.6198H121.046V18.0076Z" fill="white"/>
<path d="M132.622 23.2804C132.622 26.7386 135.55 27.5774 140.463 27.5774C144.897 27.5774 147.927 26.9269 147.927 23.7255C147.927 20.6954 145 20.4386 140.275 20.1818C136.783 19.9764 136.063 19.8052 136.063 18.8807C136.063 17.9905 136.783 17.6995 139.813 17.6995C143.014 17.6995 144.332 18.0247 144.332 19.3429H147.414C147.414 16.3813 144.675 15.2514 140.155 15.2514C135.67 15.2514 132.982 16.0902 132.982 18.7266C132.982 21.4144 135.053 22.2361 140.275 22.4758C144.161 22.6641 144.846 22.8353 144.846 23.8283C144.846 24.7698 143.87 25.1293 140.634 25.1293C136.731 25.1293 135.704 24.5473 135.704 23.2804H132.622Z" fill="white"/>
</svg>
