<svg width="15" height="15" viewBox="0 0 15 15" fill="none" xmlns="http://www.w3.org/2000/svg">
<path d="M7.5542 1.93976C8.9332 1.93976 9.35779 2.7351 9.44723 3.50009C9.48997 3.8656 10.1511 4.26081 10.4936 4.12611C11.1738 3.85858 12.0216 3.84605 12.6669 4.89157C13.2952 6.08696 12.6709 6.88717 12.033 7.34936C11.7573 7.54908 11.7573 8.13766 12.033 8.33739C12.6709 8.79957 13.2952 9.59978 12.6669 10.7952C12.0216 11.8407 11.1738 11.8282 10.4936 11.5606C10.1511 11.4259 9.48997 11.8211 9.44723 12.1867C9.35779 12.9516 8.9332 13.747 7.5542 13.747C6.1752 13.747 5.75062 12.9516 5.66117 12.1867C5.61844 11.8211 4.95726 11.4259 4.6148 11.5606C3.93463 11.8282 3.08683 11.8407 2.44152 10.7952C1.88371 9.73399 2.31311 8.98423 2.86282 8.50591C3.13684 8.26748 3.09101 7.52831 2.79518 7.31753C2.18569 6.88328 1.71617 6.13161 2.44152 4.89157C3.06275 3.82951 3.83993 3.76774 4.48842 3.99968C4.84474 4.12712 5.61777 3.69317 5.68842 3.3214C5.82245 2.61617 6.28248 1.93976 7.5542 1.93976Z" stroke="#222628" stroke-width="0.826506"/>
<circle cx="7.55429" cy="7.84338" r="1.35783" stroke="#222628" stroke-width="0.826506"/>
</svg>
